<svg xmlns="http://www.w3.org/2000/svg" viewBox="-4781 -20542.182 40 40">
    <defs>
        <style>
            .a {
                fill: #FFF;
            }
        </style>
    </defs>
    <g transform="translate(-6057 -23296)">
        <path class="a" d="M7204,7170.667a6.911,6.911,0,0,0-6.666-6.667h-26.667a6.912,6.912,0,0,0-6.667,6.667v26.667a6.911,6.911,0,0,0,6.667,6.666H7184v-15.111h-4.89v-6.667H7184v-2.6c0-4.478,3.361-8.511,7.5-8.511h5.388v6.667H7191.5a1.631,1.631,0,0,0-1.278,1.788v2.656h6.666v6.667h-6.666V7204h7.111a6.91,6.91,0,0,0,6.666-6.666Zm0,0"
            transform="translate(-5888 -4410.182)" />
    </g>
</svg>